<svg width="33" height="33" viewBox="0 0 33 33" fill="none" xmlns="http://www.w3.org/2000/svg">
<path d="M12.1282 27.5771C4.17949 29.7885 4.17949 23.8913 1 23.1541M23.2564 32V26.2944C23.316 25.5914 23.2136 24.8847 22.956 24.2212C22.6983 23.5578 22.2913 22.9528 21.7621 22.4465C26.7538 21.9305 32 20.176 32 12.1263C31.9996 10.0679 31.1458 8.08847 29.6154 6.59765C30.3401 4.79679 30.2888 2.80624 29.4723 1.0395C29.4723 1.0395 27.5964 0.523493 23.2564 3.22148C19.6127 2.30567 15.7719 2.30567 12.1282 3.22148C7.78821 0.523493 5.91231 1.0395 5.91231 1.0395C5.09578 2.80624 5.04454 4.79679 5.76923 6.59765C4.22738 8.09953 3.37273 10.0969 3.38462 12.1705C3.38462 20.1613 8.63077 21.9157 13.6226 22.4907C13.0995 22.9919 12.6962 23.5897 12.4387 24.245C12.1812 24.9004 12.0754 25.5986 12.1282 26.2944V32" stroke="#536DFE" stroke-width="2" stroke-linecap="round" stroke-linejoin="round"/>
</svg>
