<svg width="34" height="28" viewBox="0 0 34 28" fill="none" xmlns="http://www.w3.org/2000/svg">
<path d="M33 1.01457C31.6071 1.99332 30.0649 2.74191 28.4327 3.23151C27.5567 2.22811 26.3925 1.51692 25.0975 1.19414C23.8025 0.871354 22.4393 0.952548 21.1921 1.42674C19.945 1.90093 18.8741 2.74523 18.1243 3.84546C17.3746 4.94569 16.9821 6.24877 17 7.57844V9.02742C14.4438 9.09345 11.9109 8.5287 9.62692 7.38347C7.3429 6.23825 5.37864 4.5481 3.90909 2.46355C3.90909 2.46355 -1.90909 15.5044 11.1818 21.3003C8.18622 23.3259 4.61768 24.3416 1 24.1982C14.0909 31.4431 30.0909 24.1982 30.0909 7.53497C30.0896 7.13136 30.0506 6.72875 29.9745 6.33232C31.4591 4.87391 32.5067 3.03258 33 1.01457Z" stroke="#536DFE" stroke-width="2" stroke-linecap="round" stroke-linejoin="round"/>
</svg>
